<mxfile host="app.diagrams.net" modified="2021-04-16T17:28:25.906Z" agent="5.0 (Windows NT 10.0; Win64; x64) AppleWebKit/537.36 (KHTML, like Gecko) Chrome/89.0.4389.128 Safari/537.36" etag="DwCRc41OvVQwerPb-y99" version="14.5.8" type="github">
  <diagram id="Nm7-c_R2Jto_HjvgW0n3" name="Page-1">
    <mxGraphModel dx="128" dy="244" grid="1" gridSize="10" guides="1" tooltips="1" connect="1" arrows="1" fold="1" page="1" pageScale="1" pageWidth="827" pageHeight="1169" math="0" shadow="0">
      <root>
        <mxCell id="0" />
        <mxCell id="1" parent="0" />
        <mxCell id="Bs3N0DRWU6zoNiTPj7jI-5" value="Patient" style="shape=umlActor;verticalLabelPosition=bottom;verticalAlign=top;html=1;outlineConnect=0;" vertex="1" parent="1">
          <mxGeometry x="190" y="525" width="55" height="110" as="geometry" />
        </mxCell>
        <mxCell id="Bs3N0DRWU6zoNiTPj7jI-8" value="Search System" style="shape=umlActor;verticalLabelPosition=bottom;verticalAlign=top;html=1;outlineConnect=0;" vertex="1" parent="1">
          <mxGeometry x="680" y="296" width="55" height="110" as="geometry" />
        </mxCell>
        <mxCell id="Bs3N0DRWU6zoNiTPj7jI-9" value="" style="aspect=fixed;pointerEvents=1;shadow=0;dashed=0;html=1;strokeColor=none;labelPosition=center;verticalLabelPosition=bottom;verticalAlign=top;align=center;fillColor=#00188D;shape=mxgraph.mscae.enterprise.document" vertex="1" parent="1">
          <mxGeometry x="140" y="20" width="40" height="50" as="geometry" />
        </mxCell>
        <mxCell id="Bs3N0DRWU6zoNiTPj7jI-12" value="의사 검색(Search Doc)" style="swimlane;fontStyle=0;childLayout=stackLayout;horizontal=1;startSize=26;horizontalStack=0;resizeParent=1;resizeParentMax=0;resizeLast=0;collapsible=1;marginBottom=0;align=center;fontSize=14;" vertex="1" parent="1">
          <mxGeometry x="360" y="350" width="160" height="56" as="geometry">
            <mxRectangle x="310" y="230" width="50" height="26" as="alternateBounds" />
          </mxGeometry>
        </mxCell>
        <mxCell id="Bs3N0DRWU6zoNiTPj7jI-14" value=" " style="text;strokeColor=none;fillColor=none;spacingLeft=4;spacingRight=4;overflow=hidden;rotatable=0;points=[[0,0.5],[1,0.5]];portConstraint=eastwest;fontSize=12;" vertex="1" parent="Bs3N0DRWU6zoNiTPj7jI-12">
          <mxGeometry y="26" width="160" height="30" as="geometry" />
        </mxCell>
        <mxCell id="Bs3N0DRWU6zoNiTPj7jI-16" value="질병 검색(Search Dis)" style="swimlane;fontStyle=0;childLayout=stackLayout;horizontal=1;startSize=26;horizontalStack=0;resizeParent=1;resizeParentMax=0;resizeLast=0;collapsible=1;marginBottom=0;align=center;fontSize=14;" vertex="1" parent="1">
          <mxGeometry x="360" y="440" width="160" height="56" as="geometry">
            <mxRectangle x="310" y="230" width="50" height="26" as="alternateBounds" />
          </mxGeometry>
        </mxCell>
        <mxCell id="Bs3N0DRWU6zoNiTPj7jI-18" value=" " style="text;strokeColor=none;fillColor=none;spacingLeft=4;spacingRight=4;overflow=hidden;rotatable=0;points=[[0,0.5],[1,0.5]];portConstraint=eastwest;fontSize=12;" vertex="1" parent="Bs3N0DRWU6zoNiTPj7jI-16">
          <mxGeometry y="26" width="160" height="30" as="geometry" />
        </mxCell>
        <mxCell id="Bs3N0DRWU6zoNiTPj7jI-26" value="" style="endArrow=none;html=1;exitX=0;exitY=0.5;exitDx=0;exitDy=0;" edge="1" parent="1" source="Bs3N0DRWU6zoNiTPj7jI-16" target="Bs3N0DRWU6zoNiTPj7jI-5">
          <mxGeometry width="50" height="50" relative="1" as="geometry">
            <mxPoint x="330" y="480" as="sourcePoint" />
            <mxPoint x="278" y="605" as="targetPoint" />
            <Array as="points">
              <mxPoint x="278" y="468" />
              <mxPoint x="278" y="580" />
            </Array>
          </mxGeometry>
        </mxCell>
        <mxCell id="Bs3N0DRWU6zoNiTPj7jI-27" value="" style="endArrow=none;html=1;" edge="1" parent="1">
          <mxGeometry width="50" height="50" relative="1" as="geometry">
            <mxPoint x="521" y="465" as="sourcePoint" />
            <mxPoint x="690" y="361" as="targetPoint" />
            <Array as="points">
              <mxPoint x="630" y="465" />
              <mxPoint x="630" y="361" />
            </Array>
          </mxGeometry>
        </mxCell>
        <mxCell id="Bs3N0DRWU6zoNiTPj7jI-28" value="" style="endArrow=none;html=1;exitX=0.987;exitY=-0.048;exitDx=0;exitDy=0;exitPerimeter=0;" edge="1" parent="1" source="Bs3N0DRWU6zoNiTPj7jI-14">
          <mxGeometry width="50" height="50" relative="1" as="geometry">
            <mxPoint x="600" y="490" as="sourcePoint" />
            <mxPoint x="690" y="350" as="targetPoint" />
            <Array as="points">
              <mxPoint x="580" y="375" />
              <mxPoint x="580" y="350" />
            </Array>
          </mxGeometry>
        </mxCell>
      </root>
    </mxGraphModel>
  </diagram>
</mxfile>
